<svg xmlns="http://www.w3.org/2000/svg" viewBox="0 0 180 76" fill="none"><ellipse cx="90" cy="70" rx="78" ry="3" fill="#A8BA80" opacity=".2"/><g stroke="#7E995A" stroke-width="2" stroke-linecap="round"><path d="M34 70V24m0 24L22 36m12 24 16-14M83 70V9m0 25L69 21m14 25 17-16m-17 29-17-11M128 70V25m0 20 15-14m-15 27-15-14M156 70V53"/></g><g fill="#9EB76D"><ellipse cx="23" cy="35" rx="9" ry="4" transform="rotate(35 23 35)"/><ellipse cx="49" cy="45" rx="10" ry="4" transform="rotate(-28 49 45)"/><ellipse cx="69" cy="21" rx="10" ry="4" transform="rotate(35 69 21)"/><ellipse cx="99" cy="31" rx="11" ry="4" transform="rotate(-33 99 31)"/><ellipse cx="67" cy="48" rx="10" ry="4" transform="rotate(30 67 48)"/><ellipse cx="143" cy="31" rx="9" ry="4" transform="rotate(-28 143 31)"/><ellipse cx="114" cy="45" rx="10" ry="4" transform="rotate(37 114 45)"/><ellipse cx="150" cy="60" rx="7" ry="3" transform="rotate(40 150 60)"/></g><g fill="#ECC965"><circle cx="83" cy="11" r="6"/><circle cx="76" cy="12" r="5"/><circle cx="86" cy="17" r="5"/><circle cx="80" cy="19" r="5"/><circle cx="35" cy="24" r="5"/><circle cx="30" cy="26" r="4"/><circle cx="130" cy="24" r="5"/><circle cx="124" cy="25" r="4"/></g><g fill="#D3AA45"><circle cx="81" cy="14" r="2.5"/><circle cx="33" cy="25" r="1.8"/><circle cx="127" cy="25" r="1.8"/></g></svg>
