<svg xmlns="http://www.w3.org/2000/svg" viewBox="0 0 160 120" fill="none"><ellipse cx="78" cy="108" rx="54" ry="6" fill="#A88643" opacity=".13"/><path d="M119 87q25-3 22-22" stroke="#DDA64E" stroke-width="12" stroke-linecap="round"/><ellipse cx="83" cy="82" rx="41" ry="28" fill="#E8BA69"/><ellipse cx="78" cy="84" rx="21" ry="26" fill="#F5D59A"/><path d="M49 38q-27 0-21 34 6 16 22 2m55-36q24 1 20 33-5 18-20 3" fill="#CFA050"/><ellipse cx="77" cy="55" rx="36" ry="32" fill="#EAC37C"/><ellipse cx="65" cy="76" rx="12" ry="10" fill="#F5DAAA"/><ellipse cx="88" cy="76" rx="12" ry="10" fill="#F5DAAA"/><path d="M54 54q6-6 12 0m22 0q6-6 12 0" stroke="#765938" stroke-width="2.5" stroke-linecap="round"/><path d="M69 66q8-5 16 0l-8 8Z" fill="#826344"/><path d="M68 80q9 8 19 0" stroke="#826344" stroke-width="2" stroke-linecap="round"/><path d="M73 83q4 2 9 0v5q-4 8-9 0Z" fill="#D98C83"/><ellipse cx="58" cy="105" rx="17" ry="7" fill="#EDC77E"/><ellipse cx="100" cy="105" rx="17" ry="7" fill="#EDC77E"/></svg>
