<svg xmlns="http://www.w3.org/2000/svg" viewBox="0 0 160 120" fill="none"><ellipse cx="79" cy="106" rx="54" ry="6" fill="#A88643" opacity=".13"/><path d="M114 93c34 1 34-24 22-24-11 0-5 12-20 12" stroke="#DB9C48" stroke-width="12" stroke-linecap="round"/><ellipse cx="79" cy="81" rx="43" ry="29" fill="#EFB25D"/><path d="m40 55 3-34 26 16M77 38l25-20 6 34" fill="#EFB25D" stroke="#CF913F" stroke-width="2" stroke-linejoin="round"/><path d="m49 37 1-8 10 11m25 0 13-13 2 13" fill="#F1C194"/><ellipse cx="75" cy="58" rx="39" ry="29" fill="#F5BD70"/><path d="m61 32 3 10m10-12 1 11m12-8-2 10" stroke="#D8943C" stroke-width="5" stroke-linecap="round"/><path d="M49 58q7 6 13 0m22 0q7 6 13 0" stroke="#715132" stroke-width="2.5" stroke-linecap="round"/><path d="m71 67 5 4 5-4" fill="#B87856"/><path d="M76 71v4m0 0q-5 6-10 0m10 0q5 6 10 0" stroke="#906643" stroke-width="1.8" stroke-linecap="round"/><path d="m43 69-14-2m15 8-14 3m77-11 16-3m-16 10 16 2" stroke="#AF7B3E" stroke-width="1.5" stroke-linecap="round"/><ellipse cx="59" cy="104" rx="18" ry="6" fill="#F5BD70"/><ellipse cx="96" cy="104" rx="19" ry="6" fill="#F5BD70"/><path d="m103 72-8 5m13 5-9 5" stroke="#D8943C" stroke-width="5" stroke-linecap="round"/></svg>
