<svg xmlns="http://www.w3.org/2000/svg" viewBox="0 0 1020 1252" fill="none" font-family="system-ui, sans-serif" role="img" aria-label="胖橘猫切片总览"><rect width="1020" height="1252" fill="#F1F1E7"/><text x="30" y="49" font-size="25" font-weight="600" fill="#304D3C">胖橘猫 / 部件图谱</text><text x="30" y="80" font-size="13" fill="#66705E">31 个透明切片 · 绿点为局部旋转原点 · v1</text><g><rect x="26" y="112" width="180" height="145" rx="12" fill="#FFFDF7" stroke="#DCDACB"/><g transform="translate(133.125 163.9) scale(1.45)"><path xmlns="http://www.w3.org/2000/svg" d="M 4 0 C -7 3 -20 3 -29 -6" fill="none" stroke="#EDB16E" stroke-width="26" stroke-linecap="round" stroke-linejoin="round" />
  <circle cx="0" cy="0" r="3" fill="#397C64" stroke="#FFFFFF" stroke-width="1"/></g><text x="38" y="229" font-size="12" fill="#4C5549">尾巴 · 根部</text><text x="38" y="245" font-size="10" fill="#777F72">tail-base</text></g>
<g><rect x="222" y="112" width="180" height="145" rx="12" fill="#FFFDF7" stroke="#DCDACB"/><g transform="translate(318.25 183.475) scale(1.45)"><path xmlns="http://www.w3.org/2000/svg" d="M 0 0 C -8 -7 -12 -21 -9 -31" fill="none" stroke="#EDB16E" stroke-width="25" stroke-linecap="round" stroke-linejoin="round" />
<path xmlns="http://www.w3.org/2000/svg" d="M -17 -12 Q -10 -15 -1 -13" fill="none" stroke="#CD894D" stroke-width="5" stroke-linecap="round" stroke-linejoin="round" />
  <circle cx="0" cy="0" r="3" fill="#397C64" stroke="#FFFFFF" stroke-width="1"/></g><text x="234" y="229" font-size="12" fill="#4C5549">尾巴 · 中段</text><text x="234" y="245" font-size="10" fill="#777F72">tail-mid</text></g>
<g><rect x="418" y="112" width="180" height="145" rx="12" fill="#FFFDF7" stroke="#DCDACB"/><g transform="translate(501.2 180.575) scale(1.45)"><path xmlns="http://www.w3.org/2000/svg" d="M 0 1 C 1 -11 10 -16 8 -28" fill="none" stroke="#EDB16E" stroke-width="23" stroke-linecap="round" stroke-linejoin="round" />
<path xmlns="http://www.w3.org/2000/svg" d="M 7 -20 Q 10 -25 8 -29" fill="none" stroke="#CD894D" stroke-width="22" stroke-linecap="round" stroke-linejoin="round" />
  <circle cx="0" cy="0" r="3" fill="#397C64" stroke="#FFFFFF" stroke-width="1"/></g><text x="430" y="229" font-size="12" fill="#4C5549">尾巴 · 尾尖</text><text x="430" y="245" font-size="10" fill="#777F72">tail-tip</text></g>
<g><rect x="614" y="112" width="180" height="145" rx="12" fill="#FFFDF7" stroke="#DCDACB"/><g transform="translate(705.175 152.3) scale(1.45)"><g xmlns="http://www.w3.org/2000/svg" transform="scale(0.64 1)"><path d="M -19 -12 C -5 -22 14 -15 17 -2 C 21 11 10 24 4 28 C -5 31 -17 23 -20 12 C -23 4 -24 -6 -19 -12 Z" fill="#D49B61" /></g>
  <circle cx="0" cy="0" r="3" fill="#397C64" stroke="#FFFFFF" stroke-width="1"/></g><text x="626" y="229" font-size="12" fill="#4C5549">后远侧 · 大腿</text><text x="626" y="245" font-size="10" fill="#777F72">hind-far-upper</text></g>
<g><rect x="810" y="112" width="180" height="145" rx="12" fill="#FFFDF7" stroke="#DCDACB"/><g transform="translate(898.275 153.025) scale(1.45)"><g xmlns="http://www.w3.org/2000/svg" transform="scale(0.78 1)"><path d="M -9 -8 Q 0 -13 10 -7 L 11 17 Q 0 25 -10 18 Z" fill="#D49B61" /></g>
  <circle cx="0" cy="0" r="3" fill="#397C64" stroke="#FFFFFF" stroke-width="1"/></g><text x="822" y="229" font-size="12" fill="#4C5549">后远侧 · 小腿</text><text x="822" y="245" font-size="10" fill="#777F72">hind-far-lower</text></g>
<g><rect x="26" y="272" width="180" height="145" rx="12" fill="#FFFDF7" stroke="#DCDACB"/><g transform="translate(112.825 318.1) scale(1.45)"><g xmlns="http://www.w3.org/2000/svg" transform="scale(0.78 1)"><path d="M -10 -5 Q -2 -9 7 -4 C 14 -5 21 0 20 6 Q 19 11 10 11 L -10 11 Q -17 10 -15 4 Z" fill="#D49B61" /></g>
  <circle cx="0" cy="0" r="3" fill="#397C64" stroke="#FFFFFF" stroke-width="1"/></g><text x="38" y="389" font-size="12" fill="#4C5549">后远侧 · 爪子</text><text x="38" y="405" font-size="10" fill="#777F72">hind-far-paw</text></g>
<g><rect x="222" y="272" width="180" height="145" rx="12" fill="#FFFDF7" stroke="#DCDACB"/><g transform="translate(311.725 313.025) scale(1.45)"><g xmlns="http://www.w3.org/2000/svg" transform="scale(0.78 1)"><path d="M -12 -12 Q -2 -20 11 -10 Q 15 6 10 23 Q 0 30 -10 23 C -13 13 -15 -2 -12 -12 Z" fill="#D49B61" /></g>
  <circle cx="0" cy="0" r="3" fill="#397C64" stroke="#FFFFFF" stroke-width="1"/></g><text x="234" y="389" font-size="12" fill="#4C5549">前远侧 · 上肢</text><text x="234" y="405" font-size="10" fill="#777F72">front-far-upper</text></g>
<g><rect x="418" y="272" width="180" height="145" rx="12" fill="#FFFDF7" stroke="#DCDACB"/><g transform="translate(506.275 313.025) scale(1.45)"><g xmlns="http://www.w3.org/2000/svg" transform="scale(0.78 1)"><path d="M -9 -8 Q 0 -13 10 -7 L 11 17 Q 0 25 -10 18 Z" fill="#D49B61" /></g>
  <circle cx="0" cy="0" r="3" fill="#397C64" stroke="#FFFFFF" stroke-width="1"/></g><text x="430" y="389" font-size="12" fill="#4C5549">前远侧 · 下肢</text><text x="430" y="405" font-size="10" fill="#777F72">front-far-lower</text></g>
<g><rect x="614" y="272" width="180" height="145" rx="12" fill="#FFFDF7" stroke="#DCDACB"/><g transform="translate(700.825 318.1) scale(1.45)"><g xmlns="http://www.w3.org/2000/svg" transform="scale(0.78 1)"><path d="M -10 -5 Q -2 -9 7 -4 C 14 -5 21 0 20 6 Q 19 11 10 11 L -10 11 Q -17 10 -15 4 Z" fill="#D49B61" /></g>
  <circle cx="0" cy="0" r="3" fill="#397C64" stroke="#FFFFFF" stroke-width="1"/></g><text x="626" y="389" font-size="12" fill="#4C5549">前远侧 · 爪子</text><text x="626" y="405" font-size="10" fill="#777F72">front-far-paw</text></g>
<g><rect x="810" y="272" width="180" height="145" rx="12" fill="#FFFDF7" stroke="#DCDACB"/><g transform="translate(904.1509433962265 316.70754716981133) scale(0.8584905660377359)"><path xmlns="http://www.w3.org/2000/svg" d="M -74 -9 C -72 -38 -48 -49 -15 -44 C 8 -46 40 -37 54 -20 C 68 -5 66 20 51 38 C 36 57 -4 61 -40 49 C -68 42 -80 18 -74 -9 Z" fill="#EDB16E" />
<path xmlns="http://www.w3.org/2000/svg" d="M -49 27 C -28 40 10 43 43 25 Q 44 44 20 51 C -13 59 -46 50 -58 40 Z" fill="#F5C88F" />
<path xmlns="http://www.w3.org/2000/svg" d="M -52 -36 Q -40 -42 -31 -43 C -30 -32 -29 -20 -35 -18 C -42 -16 -46 -27 -52 -36 Z M -24 -44 L -10 -44 C -8 -34 -7 -24 -13 -23 C -20 -22 -21 -33 -24 -44 Z M 3 -43 Q 13 -42 20 -38 C 20 -31 21 -23 16 -23 Q 10 -23 3 -43 Z" fill="#CD894D" />
<path xmlns="http://www.w3.org/2000/svg" d="M -73 -10 Q -65 -14 -57 -8 Q -52 -2 -60 0 L -75 0 Z M -72 12 Q -63 10 -59 17 Q -57 23 -65 23 L -70 21 Z" fill="#CD894D" />
  <circle cx="0" cy="0" r="3" fill="#397C64" stroke="#FFFFFF" stroke-width="1"/></g><text x="822" y="389" font-size="12" fill="#4C5549">身体</text><text x="822" y="405" font-size="10" fill="#777F72">body</text></g>
<g><rect x="26" y="432" width="180" height="145" rx="12" fill="#FFFDF7" stroke="#DCDACB"/><g transform="translate(49.025000000000006 472.3) scale(1.45)"><path xmlns="http://www.w3.org/2000/svg" d="M 35 -17 C 58 -27 68 -11 62 11 Q 62 28 45 33 Q 35 28 31 33 Q 35 20 27 15 Q 33 13 29 4 Q 35 1 30 -5 Z" fill="#FFF0D9" />
  <circle cx="0" cy="0" r="3" fill="#397C64" stroke="#FFFFFF" stroke-width="1"/></g><text x="38" y="549" font-size="12" fill="#4C5549">胸前绒毛</text><text x="38" y="565" font-size="10" fill="#777F72">bib</text></g>
<g><rect x="222" y="432" width="180" height="145" rx="12" fill="#FFFDF7" stroke="#DCDACB"/><g transform="translate(313.175 472.3) scale(1.45)"><g xmlns="http://www.w3.org/2000/svg" transform="scale(0.64 1)"><path d="M -19 -12 C -5 -22 14 -15 17 -2 C 21 11 10 24 4 28 C -5 31 -17 23 -20 12 C -23 4 -24 -6 -19 -12 Z" fill="#EDB16E" /><path d="M -15 -3 Q -20 10 -12 17" fill="none" stroke="#CD894D" stroke-width="1.5" stroke-linecap="round" stroke-linejoin="round" /></g>
  <circle cx="0" cy="0" r="3" fill="#397C64" stroke="#FFFFFF" stroke-width="1"/></g><text x="234" y="549" font-size="12" fill="#4C5549">后近侧 · 大腿</text><text x="234" y="565" font-size="10" fill="#777F72">hind-near-upper</text></g>
<g><rect x="418" y="432" width="180" height="145" rx="12" fill="#FFFDF7" stroke="#DCDACB"/><g transform="translate(506.275 473.025) scale(1.45)"><g xmlns="http://www.w3.org/2000/svg" transform="scale(0.78 1)"><path d="M -9 -8 Q 0 -13 10 -7 L 11 17 Q 0 25 -10 18 Z" fill="#EDB16E" /></g>
  <circle cx="0" cy="0" r="3" fill="#397C64" stroke="#FFFFFF" stroke-width="1"/></g><text x="430" y="549" font-size="12" fill="#4C5549">后近侧 · 小腿</text><text x="430" y="565" font-size="10" fill="#777F72">hind-near-lower</text></g>
<g><rect x="614" y="432" width="180" height="145" rx="12" fill="#FFFDF7" stroke="#DCDACB"/><g transform="translate(700.825 478.1) scale(1.45)"><g xmlns="http://www.w3.org/2000/svg" transform="scale(0.78 1)"><path d="M -10 -5 Q -2 -9 7 -4 C 14 -5 21 0 20 6 Q 19 11 10 11 L -10 11 Q -17 10 -15 4 Z" fill="#F5C88F" /><path d="M 7 5 L 7 8 M 13 5 L 13 8" fill="none" stroke="#CD894D" stroke-width="1.2" stroke-linecap="round" stroke-linejoin="round" /></g>
  <circle cx="0" cy="0" r="3" fill="#397C64" stroke="#FFFFFF" stroke-width="1"/></g><text x="626" y="549" font-size="12" fill="#4C5549">后近侧 · 爪子</text><text x="626" y="565" font-size="10" fill="#777F72">hind-near-paw</text></g>
<g><rect x="810" y="432" width="180" height="145" rx="12" fill="#FFFDF7" stroke="#DCDACB"/><g transform="translate(899.725 473.025) scale(1.45)"><g xmlns="http://www.w3.org/2000/svg" transform="scale(0.78 1)"><path d="M -12 -12 Q -2 -20 11 -10 Q 15 6 10 23 Q 0 30 -10 23 C -13 13 -15 -2 -12 -12 Z" fill="#EDB16E" /></g>
  <circle cx="0" cy="0" r="3" fill="#397C64" stroke="#FFFFFF" stroke-width="1"/></g><text x="822" y="549" font-size="12" fill="#4C5549">前近侧 · 上肢</text><text x="822" y="565" font-size="10" fill="#777F72">front-near-upper</text></g>
<g><rect x="26" y="592" width="180" height="145" rx="12" fill="#FFFDF7" stroke="#DCDACB"/><g transform="translate(114.275 633.025) scale(1.45)"><g xmlns="http://www.w3.org/2000/svg" transform="scale(0.78 1)"><path d="M -9 -8 Q 0 -13 10 -7 L 11 17 Q 0 25 -10 18 Z" fill="#EDB16E" /></g>
  <circle cx="0" cy="0" r="3" fill="#397C64" stroke="#FFFFFF" stroke-width="1"/></g><text x="38" y="709" font-size="12" fill="#4C5549">前近侧 · 下肢</text><text x="38" y="725" font-size="10" fill="#777F72">front-near-lower</text></g>
<g><rect x="222" y="592" width="180" height="145" rx="12" fill="#FFFDF7" stroke="#DCDACB"/><g transform="translate(308.825 638.1) scale(1.45)"><g xmlns="http://www.w3.org/2000/svg" transform="scale(0.78 1)"><path d="M -10 -5 Q -2 -9 7 -4 C 14 -5 21 0 20 6 Q 19 11 10 11 L -10 11 Q -17 10 -15 4 Z" fill="#F5C88F" /><path d="M 7 5 L 7 8 M 13 5 L 13 8" fill="none" stroke="#CD894D" stroke-width="1.2" stroke-linecap="round" stroke-linejoin="round" /></g>
  <circle cx="0" cy="0" r="3" fill="#397C64" stroke="#FFFFFF" stroke-width="1"/></g><text x="234" y="709" font-size="12" fill="#4C5549">前近侧 · 爪子</text><text x="234" y="725" font-size="10" fill="#777F72">front-near-paw</text></g>
<g><rect x="418" y="592" width="180" height="145" rx="12" fill="#FFFDF7" stroke="#DCDACB"/><g transform="translate(505.55 650.425) scale(1.45)"><path xmlns="http://www.w3.org/2000/svg" d="M -18 18 C -20 6 -21 -17 -14 -28 C -10 -34 -6 -30 1 -22 L 22 8 Z" fill="#EDB16E" />
<path xmlns="http://www.w3.org/2000/svg" d="M -11 -20 Q -15 -8 -12 7 L 8 3 Z" fill="#D58E83" />
  <circle cx="0" cy="0" r="3" fill="#397C64" stroke="#FFFFFF" stroke-width="1"/></g><text x="430" y="709" font-size="12" fill="#4C5549">耳朵 · 远侧</text><text x="430" y="725" font-size="10" fill="#777F72">ear-far</text></g>
<g><rect x="614" y="592" width="180" height="145" rx="12" fill="#FFFDF7" stroke="#DCDACB"/><g transform="translate(701.55 649.7) scale(1.45)"><path xmlns="http://www.w3.org/2000/svg" d="M -20 10 L 5 -25 Q 13 -35 17 -25 C 24 -7 22 9 19 18 Z" fill="#EDB16E" />
<path xmlns="http://www.w3.org/2000/svg" d="M 7 -17 L -4 3 L 15 8 Q 16 -4 12 -18 Z" fill="#D58E83" />
  <circle cx="0" cy="0" r="3" fill="#397C64" stroke="#FFFFFF" stroke-width="1"/></g><text x="626" y="709" font-size="12" fill="#4C5549">耳朵 · 近侧</text><text x="626" y="725" font-size="10" fill="#777F72">ear-near</text></g>
<g><rect x="810" y="592" width="180" height="145" rx="12" fill="#FFFDF7" stroke="#DCDACB"/><g transform="translate(901.3697916666666 639.1041666666666) scale(0.9479166666666666)"><path xmlns="http://www.w3.org/2000/svg" d="M -53 -18 C -45 -43 -21 -46 1 -42 C 28 -44 48 -32 52 -11 C 55 0 54 8 60 16 L 53 19 L 58 25 L 49 29 C 41 46 14 50 -12 47 C -35 46 -54 36 -58 23 L -65 20 L -58 14 L -64 9 L -58 5 C -60 -4 -57 -12 -53 -18 Z" fill="#F5C88F" />
<path xmlns="http://www.w3.org/2000/svg" d="M -25 -39 L -12 -43 Q -9 -25 -15 -25 Q -20 -25 -25 -39 M -5 -43 L 8 -42 Q 8 -22 2 -23 Q -4 -24 -5 -43 M 19 -40 L 31 -35 Q 25 -20 20 -24 Q 17 -27 19 -40" fill="#CD894D" />
<path xmlns="http://www.w3.org/2000/svg" d="M -56 3 L -43 6 Q -40 9 -43 11 L -56 11 Z M -54 17 L -42 17 Q -39 20 -42 23 L -51 23 Z M 50 1 L 39 5 Q 36 9 40 10 L 54 8 Z M 53 15 L 41 17 Q 37 21 42 23 L 54 21 Z" fill="#CD894D" />
<ellipse xmlns="http://www.w3.org/2000/svg" cx="-32" cy="21" rx="9" ry="5" fill="#EDB196" />
<ellipse xmlns="http://www.w3.org/2000/svg" cx="35" cy="20" rx="8" ry="5" fill="#EDB196" />
  <circle cx="0" cy="0" r="3" fill="#397C64" stroke="#FFFFFF" stroke-width="1"/></g><text x="822" y="709" font-size="12" fill="#4C5549">头部</text><text x="822" y="725" font-size="10" fill="#777F72">head</text></g>
<g><rect x="26" y="752" width="180" height="145" rx="12" fill="#FFFDF7" stroke="#DCDACB"/><g transform="translate(115.725 796.65) scale(1.45)"><path xmlns="http://www.w3.org/2000/svg" d="M -29 -3 C -26 -14 -9 -14 0 -7 C 11 -15 29 -10 29 1 C 29 16 10 19 0 17 C -17 20 -34 13 -29 -3 Z" fill="#FFF0D9" />
  <circle cx="0" cy="0" r="3" fill="#397C64" stroke="#FFFFFF" stroke-width="1"/></g><text x="38" y="869" font-size="12" fill="#4C5549">口鼻绒毛</text><text x="38" y="885" font-size="10" fill="#777F72">muzzle</text></g>
<g><rect x="222" y="752" width="180" height="145" rx="12" fill="#FFFDF7" stroke="#DCDACB"/><g transform="translate(313.175 805.35) scale(1.45)"><path xmlns="http://www.w3.org/2000/svg" d="M -6 0 C -6 -9 5 -10 6 -1 L 6 3 C 4 10 -5 8 -6 2 Z" fill="#624638" />
<ellipse xmlns="http://www.w3.org/2000/svg" cx="-2" cy="-2" rx="1.7" ry="2" fill="#FFF8EB" />
<path xmlns="http://www.w3.org/2000/svg" d="M -8 -11 Q -3 -14 3 -12" fill="none" stroke="#CD894D" stroke-width="1.4" stroke-linecap="round" stroke-linejoin="round" />
  <circle cx="0" cy="0" r="3" fill="#397C64" stroke="#FFFFFF" stroke-width="1"/></g><text x="234" y="869" font-size="12" fill="#4C5549">眼睛 · 远侧睁眼</text><text x="234" y="885" font-size="10" fill="#777F72">eye-far-open</text></g>
<g><rect x="418" y="752" width="180" height="145" rx="12" fill="#FFFDF7" stroke="#DCDACB"/><g transform="translate(507.0 798.825) scale(1.45)"><path xmlns="http://www.w3.org/2000/svg" d="M -7 0 Q 0 7 7 0" fill="none" stroke="#624638" stroke-width="2.3" stroke-linecap="round" stroke-linejoin="round" />
  <circle cx="0" cy="0" r="3" fill="#397C64" stroke="#FFFFFF" stroke-width="1"/></g><text x="430" y="869" font-size="12" fill="#4C5549">眼睛 · 远侧闭眼</text><text x="430" y="885" font-size="10" fill="#777F72">eye-far-closed</text></g>
<g><rect x="614" y="752" width="180" height="145" rx="12" fill="#FFFDF7" stroke="#DCDACB"/><g transform="translate(705.175 805.35) scale(1.45)"><path xmlns="http://www.w3.org/2000/svg" d="M -6 0 C -6 -9 5 -10 6 -1 L 6 3 C 4 10 -5 8 -6 2 Z" fill="#624638" />
<ellipse xmlns="http://www.w3.org/2000/svg" cx="-2" cy="-2" rx="1.7" ry="2" fill="#FFF8EB" />
<path xmlns="http://www.w3.org/2000/svg" d="M -8 -11 Q -3 -14 3 -12" fill="none" stroke="#CD894D" stroke-width="1.4" stroke-linecap="round" stroke-linejoin="round" />
  <circle cx="0" cy="0" r="3" fill="#397C64" stroke="#FFFFFF" stroke-width="1"/></g><text x="626" y="869" font-size="12" fill="#4C5549">眼睛 · 近侧睁眼</text><text x="626" y="885" font-size="10" fill="#777F72">eye-near-open</text></g>
<g><rect x="810" y="752" width="180" height="145" rx="12" fill="#FFFDF7" stroke="#DCDACB"/><g transform="translate(899.0 798.825) scale(1.45)"><path xmlns="http://www.w3.org/2000/svg" d="M -7 0 Q 0 7 7 0" fill="none" stroke="#624638" stroke-width="2.3" stroke-linecap="round" stroke-linejoin="round" />
  <circle cx="0" cy="0" r="3" fill="#397C64" stroke="#FFFFFF" stroke-width="1"/></g><text x="822" y="869" font-size="12" fill="#4C5549">眼睛 · 近侧闭眼</text><text x="822" y="885" font-size="10" fill="#777F72">eye-near-closed</text></g>
<g><rect x="26" y="912" width="180" height="145" rx="12" fill="#FFFDF7" stroke="#DCDACB"/><g transform="translate(115.0 960.275) scale(1.45)"><path xmlns="http://www.w3.org/2000/svg" d="M -6 -2 Q 0 -6 6 -2 Q 6 1 0 5 Q -6 1 -6 -2 Z" fill="#D58E83" />
  <circle cx="0" cy="0" r="3" fill="#397C64" stroke="#FFFFFF" stroke-width="1"/></g><text x="38" y="1029" font-size="12" fill="#4C5549">鼻子</text><text x="38" y="1045" font-size="10" fill="#777F72">nose</text></g>
<g><rect x="222" y="912" width="180" height="145" rx="12" fill="#FFFDF7" stroke="#DCDACB"/><g transform="translate(310.275 957.375) scale(1.45)"><path xmlns="http://www.w3.org/2000/svg" d="M 0 -2 L 0 3 M -9 3 Q -5 10 0 3 Q 6 9 10 2" fill="none" stroke="#624638" stroke-width="1.5" stroke-linecap="round" stroke-linejoin="round" />
  <circle cx="0" cy="0" r="3" fill="#397C64" stroke="#FFFFFF" stroke-width="1"/></g><text x="234" y="1029" font-size="12" fill="#4C5549">嘴巴 · 微笑</text><text x="234" y="1045" font-size="10" fill="#777F72">mouth-smile</text></g>
<g><rect x="418" y="912" width="180" height="145" rx="12" fill="#FFFDF7" stroke="#DCDACB"/><g transform="translate(506.275 950.125) scale(1.45)"><path xmlns="http://www.w3.org/2000/svg" d="M -9 0 Q 0 5 10 0 Q 10 15 1 15 Q -8 15 -9 0 Z" fill="#624638" />
  <circle cx="0" cy="0" r="3" fill="#397C64" stroke="#FFFFFF" stroke-width="1"/></g><text x="430" y="1029" font-size="12" fill="#4C5549">嘴巴 · 张开</text><text x="430" y="1045" font-size="10" fill="#777F72">mouth-open</text></g>
<g><rect x="614" y="912" width="180" height="145" rx="12" fill="#FFFDF7" stroke="#DCDACB"/><g transform="translate(703.0 954.475) scale(1.45)"><path xmlns="http://www.w3.org/2000/svg" d="M -5 0 Q 0 -2 5 0 L 5 6 Q 0 13 -5 6 Z" fill="#D58E83" />
<path xmlns="http://www.w3.org/2000/svg" d="M 0 1 L 0 5" fill="none" stroke="#BC796F" stroke-width="0.9" stroke-linecap="round" stroke-linejoin="round" />
  <circle cx="0" cy="0" r="3" fill="#397C64" stroke="#FFFFFF" stroke-width="1"/></g><text x="626" y="1029" font-size="12" fill="#4C5549">舌头</text><text x="626" y="1045" font-size="10" fill="#777F72">tongue</text></g>
<g><rect x="810" y="912" width="180" height="145" rx="12" fill="#FFFDF7" stroke="#DCDACB"/><g transform="translate(912.05 958.825) scale(1.45)"><path xmlns="http://www.w3.org/2000/svg" d="M 0 -1 L -18 -4 M 0 5 L -16 7" fill="none" stroke="#AA7857" stroke-width="1.1" stroke-linecap="round" stroke-linejoin="round" />
  <circle cx="0" cy="0" r="3" fill="#397C64" stroke="#FFFFFF" stroke-width="1"/></g><text x="822" y="1029" font-size="12" fill="#4C5549">胡须 · 远侧</text><text x="822" y="1045" font-size="10" fill="#777F72">whiskers-far</text></g>
<g><rect x="26" y="1072" width="180" height="145" rx="12" fill="#FFFDF7" stroke="#DCDACB"/><g transform="translate(103.4 1118.825) scale(1.45)"><path xmlns="http://www.w3.org/2000/svg" d="M 0 -1 L 16 -4 M 0 5 L 14 7" fill="none" stroke="#AA7857" stroke-width="1.1" stroke-linecap="round" stroke-linejoin="round" />
  <circle cx="0" cy="0" r="3" fill="#397C64" stroke="#FFFFFF" stroke-width="1"/></g><text x="38" y="1189" font-size="12" fill="#4C5549">胡须 · 近侧</text><text x="38" y="1205" font-size="10" fill="#777F72">whiskers-near</text></g></svg>
